<svg width="1301" height="322" viewBox="0 0 1301 322" fill="none" xmlns="http://www.w3.org/2000/svg">
<g clip-path="url(#clip0_3_194)">
<path d="M452.991 116.425C446.23 115.926 439.459 117.243 433.377 120.238C427.295 123.234 422.123 127.799 418.396 133.463L413.874 140.405V75.9316H393.37V237.378H413.874V169.855C413.659 165.534 414.311 161.214 415.792 157.15C417.273 153.085 419.553 149.359 422.497 146.19C425.582 143.206 429.244 140.884 433.258 139.365C437.272 137.846 441.553 137.162 445.841 137.355C466.135 137.355 476.861 148.714 476.861 170.38V237.378H497.26V164.701C497.544 152.402 493.232 140.439 485.168 131.15C481.228 126.488 476.29 122.773 470.72 120.279C465.151 117.785 459.091 116.575 452.991 116.74" fill="#205795"/>
<path d="M961.193 190.994L930.068 116.319H907.04L961.193 236.641L1015.24 116.319H992.213L961.193 190.994Z" fill="#205795"/>
<path d="M1288.64 130.729C1284.64 126.142 1279.69 122.478 1274.13 119.99C1268.58 117.502 1262.55 116.25 1256.46 116.32C1226.07 114.953 1217.24 135.357 1217.24 135.357V116.215H1196.84V237.379H1217.24V169.855C1217.05 165.553 1217.71 161.256 1219.19 157.213C1220.67 153.169 1222.94 149.458 1225.86 146.295C1228.95 143.312 1232.61 140.99 1236.62 139.471C1240.64 137.951 1244.92 137.267 1249.21 137.461C1269.5 137.461 1280.75 148.82 1280.75 170.381V237.379H1301.15V164.701C1301.45 152.418 1297.18 140.46 1289.16 131.15" fill="#205795"/>
<path d="M634.379 131.571C623.72 123.017 610.504 118.277 596.839 118.108C581.332 118.136 566.467 124.302 555.492 135.26C544.517 146.218 538.325 161.076 538.27 176.586C538.325 192.115 544.532 206.989 555.529 217.95C566.527 228.91 581.419 235.065 596.945 235.065C610.575 234.88 623.752 230.141 634.379 221.602V237.379H656.776V115.689H634.379V131.571ZM596.735 213.714C586.88 213.714 577.428 209.806 570.45 202.846C563.472 195.886 559.538 186.443 559.51 176.586C559.538 166.73 563.472 157.287 570.45 150.327C577.428 143.367 586.88 139.459 596.735 139.459C606.579 139.459 616.02 143.371 622.981 150.333C629.942 157.296 633.853 166.74 633.853 176.586C633.853 186.433 629.942 195.877 622.981 202.839C616.02 209.802 606.579 213.714 596.735 213.714" fill="#205795"/>
<path d="M864.452 131.571C853.882 123.003 840.727 118.259 827.123 118.108C811.616 118.136 796.75 124.302 785.775 135.26C774.8 146.218 768.609 161.076 768.553 176.586C768.581 192.106 774.764 206.979 785.745 217.943C796.726 228.907 811.607 235.065 827.123 235.065C840.727 234.914 853.882 230.17 864.452 221.602V237.379H886.955V115.689H864.452V131.571ZM827.018 213.714C817.173 213.714 807.732 209.802 800.771 202.839C793.81 195.877 789.899 186.433 789.899 176.586C789.899 166.74 793.81 157.296 800.771 150.333C807.732 143.371 817.173 139.459 827.018 139.459C836.872 139.459 846.324 143.367 853.302 150.327C860.28 157.287 864.214 166.73 864.242 176.586C864.214 186.443 860.28 195.886 853.302 202.846C846.324 209.806 836.872 213.714 827.018 213.714" fill="#205795"/>
<path d="M1132.49 131.571C1121.99 123.019 1108.91 118.274 1095.37 118.108C1079.89 118.164 1065.06 124.346 1054.13 135.304C1043.19 146.262 1037.04 161.104 1037.01 176.586C1036.99 184.261 1038.49 191.863 1041.42 198.957C1044.35 206.051 1048.64 212.499 1054.06 217.93C1059.48 223.362 1065.92 227.671 1073.01 230.611C1080.1 233.551 1087.69 235.065 1095.37 235.065C1108.91 234.899 1121.99 230.154 1132.49 221.602V237.379H1154.99V115.689H1132.49V131.571ZM1095.79 213.714C1085.94 213.714 1076.5 209.802 1069.54 202.839C1062.58 195.877 1058.67 186.433 1058.67 176.586C1058.67 166.74 1062.58 157.296 1069.54 150.333C1076.5 143.371 1085.94 139.459 1095.79 139.459C1105.64 139.459 1115.09 143.367 1122.07 150.327C1129.05 157.287 1132.98 166.73 1133.01 176.586C1132.98 186.443 1129.05 195.886 1122.07 202.846C1115.09 209.806 1105.64 213.714 1095.79 213.714" fill="#205795"/>
<path d="M717.239 130.098V115.583H696.208V237.378H717.239V157.549C717.4 154.785 718.106 152.08 719.315 149.589C720.524 147.099 722.213 144.871 724.284 143.035C728.804 139.055 734.67 136.949 740.688 137.145C744.283 137.188 747.843 137.864 751.203 139.143V116.74H745.525C740.045 116.216 734.525 117.18 729.547 119.531C724.568 121.882 720.316 125.532 717.239 130.098" fill="#205795"/>
<path d="M148.048 233.171L160.982 226.861C167.992 223.495 174.722 219.989 181.171 216.343V193.52H148.048V233.171Z" fill="#205795"/>
<path d="M35.0099 265.987C37.3001 266.416 39.6208 266.662 41.95 266.723H44.2634H48.8901C59.0484 265.929 69.0938 264.06 78.8585 261.149L58.0383 111.166L14.7156 116.11L35.0099 265.987Z" fill="#205795"/>
<path d="M84.6419 259.045C94.1056 256.1 104.2 252.314 114.821 248.527V127.89H147.839V161.125H180.962V128.1H213.874V199.094C213.874 199.094 259.826 172.064 266.451 168.277L250.572 44.1687L209.668 48.9017C211.14 52.1622 212.928 54.8968 214.295 57.421L215.767 59.8401H216.713H217.45C218.451 59.7343 219.464 59.8921 220.386 60.298C221.308 60.7038 222.108 61.3436 222.707 62.1539C223.27 62.9297 223.631 63.8333 223.759 64.7834C223.927 66.139 223.591 67.5092 222.816 68.6338C222.04 69.7583 220.879 70.5589 219.553 70.8836C217.765 68.0439 216.083 65.2041 214.295 62.5747C209.774 55.4226 205.357 48.9016 201.151 43.0117C196.945 37.1218 194.001 33.4407 190.636 29.3388L186.535 24.5006L181.487 19.1366C177.659 15.2414 173.469 11.7196 168.974 8.61892C163.424 4.49682 156.64 2.38286 149.731 2.62375H148.259C137.008 4.41176 128.911 15.1399 121.971 29.0233C119.553 33.9666 117.239 39.5409 115.031 44.9049C112.823 50.2689 111.876 52.688 110.404 56.5796L108.196 62.2591C106.619 66.2559 105.042 70.2526 103.464 74.039C101.887 77.8253 99.9942 81.8221 98.2066 85.2929C96.7857 84.8877 95.5786 83.9445 94.8417 82.6635C94.6717 81.8307 94.6717 80.9721 94.8417 80.1393C94.8417 78.7445 95.3957 77.4069 96.3817 76.4207C97.3677 75.4345 98.7049 74.8804 100.099 74.8804H101.361C102.518 71.4096 105.462 61.7333 105.567 61.5229L59.9312 66.8869L84.6419 259.045ZM147.733 5.67397C148.36 5.5737 148.999 5.5737 149.626 5.67397C155.224 5.50626 160.725 7.16776 165.294 10.4069L169.71 13.5622C167.856 12.8212 165.96 12.189 164.032 11.669C159.582 10.4653 154.951 10.0734 150.362 10.512H147.733C142.217 11.605 137.011 13.9038 132.486 17.2435C135.931 11.5822 141.371 7.4169 147.733 5.56885V5.67397ZM114.505 55.633C116.819 49.6379 119.132 43.6429 121.551 38.0685C123.407 34.2814 125.739 30.7469 128.49 27.5508C133.355 21.4398 140.132 17.1426 147.733 15.3502H150.888C153.99 14.8848 157.144 14.8848 160.247 15.3502C168.042 16.9952 175.284 20.617 181.277 25.8679L182.434 26.8145L183.485 27.7612C185.588 29.6544 187.691 31.7578 189.794 34.0717C192.318 37.227 195.052 40.803 197.786 44.5894L201.046 49.2172L116.083 58.9987L110.615 66.4662C110.615 65.8352 114.716 55.9485 114.821 55.9485" fill="#205795"/>
<path d="M272.339 163.754L339.321 120.211L333.538 75.8262L261.824 84.1352L272.339 163.754Z" fill="#205795"/>
<path d="M48.3641 307.111C55.3993 307.456 62.4512 307.033 69.3946 305.849C73.3904 305.218 77.4914 304.481 81.8026 303.43C93.0792 300.592 104.175 297.08 115.031 292.912V292.912C125.546 289.02 136.061 284.498 147.943 279.449C156.461 275.558 165.188 271.456 173.916 267.143L181.172 263.567L188.743 259.781C197.26 255.364 205.883 250.736 214.295 246.108C225.09 240.218 235.606 234.223 245.841 228.123L247.207 227.387L248.68 226.545C259.195 220.129 270.341 213.714 280.225 207.508C288.217 202.67 295.893 197.832 303.148 193.309C306.724 190.995 310.194 188.892 313.664 186.683C320.499 182.371 332.696 174.377 332.696 174.377L344.999 166.384L344.473 162.808V160.389L341.74 139.354L322.602 152.08L313.979 157.654L309.878 160.389C300.94 166.174 291.161 172.379 280.751 178.795C273.075 183.633 264.978 188.576 256.566 193.625L247.523 198.989L235.22 206.246C228.28 210.243 221.34 214.239 214.19 218.131L198.417 226.861C192.633 229.911 186.85 233.066 181.067 236.011L162.98 245.161L147.838 252.419C142.055 255.048 136.377 257.678 130.698 260.097L114.61 266.723L104.095 270.614C96.2085 273.454 88.5323 275.873 81.1716 277.977C73.7758 280.045 66.261 281.66 58.669 282.815C55.1843 283.346 51.6746 283.697 48.1537 283.867C42.3884 284.267 36.5956 283.949 30.9087 282.92L26.7027 281.763C22.1772 280.434 18.1035 277.887 14.9257 274.401C12.6082 271.852 10.7891 268.891 9.56279 265.671C8.92899 263.845 8.40239 261.984 7.98557 260.097C6.48722 251.273 6.66562 242.245 8.51136 233.487C8.51136 231.278 9.35247 229.069 9.87823 226.861C11.2316 221.02 12.9169 215.261 14.9257 209.612C16.1875 205.72 17.5544 202.144 18.9214 199.094C17.5544 201.723 16.1875 204.458 14.9257 207.298C11.9281 213.736 9.29518 220.337 7.03923 227.071V227.071C5.67594 230.862 4.51757 234.725 3.56918 238.641C1.74579 245.726 0.722831 252.993 0.519669 260.307C0.425467 264.614 0.813446 268.918 1.67635 273.139V273.98C3.17769 281.395 6.83591 288.201 12.1916 293.543L13.5586 294.7L14.505 295.541C20.6805 300.402 27.8668 303.816 35.5355 305.533L39.7417 306.48C42.2431 306.933 44.7725 307.214 47.3125 307.321" fill="#205795"/>
<path d="M350.257 193.624V191.31L348.153 175.638H347.628C339.426 181.002 330.383 186.998 320.498 193.308L314.4 197.095L304.831 203.09C297.26 207.823 289.373 212.766 281.171 217.709L266.45 226.544C260.351 230.12 254.252 233.696 247.943 237.062C241.634 240.427 232.275 246.002 224.284 250.419L214.715 255.573L207.039 259.675C198.522 264.092 190.004 268.51 181.592 272.612C173.18 276.713 165.504 280.289 157.617 283.866L148.364 287.967L136.587 292.911C129.226 295.856 122.076 298.485 115.556 300.904C111.56 302.377 107.67 303.639 103.884 304.796C96.4185 307.11 89.163 309.003 82.8538 310.475C75.9226 311.999 68.8965 313.053 61.8233 313.631H53.4111H49.1C45.5706 313.512 42.0554 313.125 38.5847 312.474V312.474C41.9109 314.535 45.4332 316.261 49.1 317.627V317.627C51.2372 318.347 53.4138 318.944 55.6194 319.415C64.3421 321.13 73.265 321.591 82.1178 320.783L88.0063 320.152C97.2206 318.973 106.352 317.216 115.346 314.893C120.498 313.525 125.861 312.053 131.119 310.37L148.574 304.375C158.143 300.904 167.922 296.907 177.807 292.7L181.802 290.912L185.272 289.44C195.157 285.022 205.146 280.29 214.925 275.346C224.705 270.403 235.956 264.828 245.84 259.464L248.154 258.202L251.518 256.414C262.034 250.735 271.813 245.16 281.382 239.586C289.268 235.063 296.839 230.541 304.095 226.229C307.67 224.02 311.245 221.916 314.61 219.708C320.919 215.921 326.913 212.135 332.381 209.19L347.523 199.514C348.574 198.777 349.731 198.146 350.677 197.41L350.257 193.624Z" fill="#205795"/>
</g>
<defs>
<clipPath id="clip0_3_194">
<rect width="1300" height="321" fill="white" transform="translate(0.72998 0.72998)"/>
</clipPath>
</defs>
</svg>
