<svg id="Layer_1" data-name="Layer 1" xmlns="http://www.w3.org/2000/svg" viewBox="0 0 1241 483"><defs><style>.cls-1{fill:#8661c5;}.cls-2{fill:#3b2e58;}</style></defs><path class="cls-1" d="M178.44,258.41H134.79v30.36H174.9v22.6H134.79v48.05H106.93V235.72h71.51ZM229,361.58q-22.08,0-34.72-12.38t-12.64-33.6q0-21.92,13.11-34.29t35.46-12.38q22,0,34.5,12.38t12.51,32.74q0,22-12.9,34.76T229,361.58Zm.69-71.77q-9.66,0-15,6.64t-5.35,18.8q0,25.46,20.53,25.45,19.58,0,19.58-26.14Q249.47,289.81,229.72,289.81Zm139.61,69.61H342.16V346h-.43q-10.1,15.62-27,15.62Q284,361.58,284,324.4V271.09h27.17V322q0,18.72,14.83,18.72a14.7,14.7,0,0,0,11.74-5.13q4.39-5.13,4.4-13.93V271.09h27.17Zm94.12,0H436.28V310.34q0-20.54-14.66-20.53A14.56,14.56,0,0,0,410,295.24q-4.58,5.43-4.57,13.8v50.38H378.14V271.09H405.4v14h.34q9.75-16.12,28.38-16.13,29.34,0,29.33,36.4Zm98.48,0H534.67V347.26h-.34Q525,361.57,507,361.58q-16.56,0-26.65-11.69t-10.09-32.65q0-21.92,11.12-35.11t29.16-13.2q17.09,0,23.81,12.25h.34V228.65h27.26Zm-26.74-43v-6.64a20.94,20.94,0,0,0-5-14.32A17.68,17.68,0,0,0,503,296.92q-5.1,7.13-5.09,19.54,0,11.66,4.91,17.94t13.63,6.3a16.39,16.39,0,0,0,13.5-6.64Q535.19,327.41,535.19,316.46ZM653.32,323H595.7q1.38,19.23,24.24,19.23,14.58,0,25.62-6.9V355q-12.25,6.56-31.83,6.56-21.39,0-33.21-11.86T568.7,316.63q0-22,12.77-34.84t31.4-12.86q19.32,0,29.89,11.48t10.56,31.14Zm-25.27-16.74q0-19-15.36-19a14.66,14.66,0,0,0-11.34,5.43,24.67,24.67,0,0,0-5.82,13.54Zm90.75-10.61A23.67,23.67,0,0,0,707.33,293q-8.9,0-13.89,6.51t-5,17.73v42.18H661.18V271.09h27.26v16.39h.34q6.47-17.94,23.29-17.94a17.56,17.56,0,0,1,6.73,1ZM725,357.09V335a58.29,58.29,0,0,0,13.41,6,44.58,44.58,0,0,0,12.64,2q7.24,0,11.43-2t4.18-6a5.58,5.58,0,0,0-1.89-4.31,17.61,17.61,0,0,0-4.88-3,53.56,53.56,0,0,0-6.51-2.33q-3.54-1-6.82-2.33a66.11,66.11,0,0,1-9.27-4.27,26.8,26.8,0,0,1-6.73-5.31,20.89,20.89,0,0,1-4.14-7,27.9,27.9,0,0,1-1.42-9.41,24.24,24.24,0,0,1,3.23-12.76,26.37,26.37,0,0,1,8.63-8.76,39.37,39.37,0,0,1,12.33-5,64,64,0,0,1,14.45-1.6,79.49,79.49,0,0,1,11.91.91,88.39,88.39,0,0,1,11.9,2.63v21A42.49,42.49,0,0,0,776.4,289a46.61,46.61,0,0,0-11.6-1.51,26.17,26.17,0,0,0-5,.47,16.81,16.81,0,0,0-4.18,1.38,7.73,7.73,0,0,0-2.85,2.33,5.38,5.38,0,0,0-1,3.24,6,6,0,0,0,1.56,4.14,13.3,13.3,0,0,0,4,3,39.25,39.25,0,0,0,5.56,2.25q3.06,1,6.09,2a80.56,80.56,0,0,1,9.83,4.14,31.49,31.49,0,0,1,7.55,5.27,20.62,20.62,0,0,1,4.83,7.07,28.29,28.29,0,0,1-1.73,23.07,27.31,27.31,0,0,1-9,9.06,41,41,0,0,1-13,5.09,72.48,72.48,0,0,1-15.31,1.6A78.93,78.93,0,0,1,725,357.09Zm214.23,2.33h-28V309H860.07v50.38H832.21V235.72h27.86v49.34h51.24V235.72h28Zm94.12,0h-27.17V346h-.43q-10.1,15.62-27,15.62-30.72,0-30.71-37.18V271.09h27.17V322q0,18.72,14.83,18.72a14.7,14.7,0,0,0,11.74-5.13q4.4-5.13,4.4-13.93V271.09h27.17Zm36.41-10.26h-.34v10.26h-27.26V228.65h27.26v55.72h.34q10.1-15.44,28.73-15.44,17.07,0,26.31,11.73t9.23,32.09q0,22.1-10.78,35.46t-28.82,13.37Q1078.17,361.58,1069.79,349.16Zm-.77-37.27V321q0,8.54,4.91,14.14a16,16,0,0,0,12.6,5.61q9.32,0,14.45-7.2t5.13-20.4q0-11-4.7-17.12T1088,289.81a17.32,17.32,0,0,0-13.58,6.12Q1069,302.06,1069,311.89Z"/><path class="cls-2" d="M162.12,175.09h-8.46V141.83c0-2.72.17-6.06.5-10H154a34.42,34.42,0,0,1-1.4,4.84l-15.34,38.42h-5.87L116,137a36.41,36.41,0,0,1-1.36-5.13h-.14c.19,2.06.28,5.41.28,10.07v33.19h-7.88V123.7h12l13.51,34.22a50.28,50.28,0,0,1,2,5.88h.18q1.32-4.05,2.15-6l13.76-34.08h11.58Zm13.34-44.4a5,5,0,0,1-3.49-1.33,4.36,4.36,0,0,1-1.46-3.37,4.46,4.46,0,0,1,1.46-3.4,4.89,4.89,0,0,1,3.49-1.36,5.06,5.06,0,0,1,3.58,1.36,4.57,4.57,0,0,1,0,6.72A5,5,0,0,1,175.46,130.69Zm4.12,44.4h-8.31v-36.7h8.31Zm35.29-1.69A20.46,20.46,0,0,1,204.44,176q-8.16,0-13.18-5.11t-5-13.24q0-9.07,5.39-14.57t14.43-5.5a21.09,21.09,0,0,1,8.85,1.76V147a13.43,13.43,0,0,0-8.17-2.87,11.34,11.34,0,0,0-8.64,3.57,13,13,0,0,0-3.37,9.33q0,5.7,3.17,9a11.29,11.29,0,0,0,8.51,3.29,13.28,13.28,0,0,0,8.46-3.19Zm27.69-27.09a6.87,6.87,0,0,0-4.33-1.18,7.44,7.44,0,0,0-6.17,3.33c-1.64,2.22-2.47,5.24-2.47,9.07v17.56h-8.31v-36.7h8.31V146h.15a12.82,12.82,0,0,1,3.74-6,8.47,8.47,0,0,1,5.64-2.16,6.9,6.9,0,0,1,3.44.68ZM262.23,176q-8.49,0-13.56-5.15t-5.07-13.63q0-9.25,5.28-14.44t14.25-5.2q8.6,0,13.4,5.05t4.8,14q0,8.78-5.18,14.06T262.23,176Zm.39-31.79a9.49,9.49,0,0,0-7.7,3.4q-2.83,3.41-2.83,9.39c0,3.85.95,6.88,2.87,9.09a9.61,9.61,0,0,0,7.66,3.31,9.13,9.13,0,0,0,7.55-3.26c1.75-2.17,2.63-5.27,2.63-9.28s-.88-7.16-2.63-9.35A9.1,9.1,0,0,0,262.62,144.16Zm23,29.78v-7.7a16.61,16.61,0,0,0,10.28,3.54q7.53,0,7.53-4.44a3.48,3.48,0,0,0-.65-2.13,6,6,0,0,0-1.73-1.56,13.47,13.47,0,0,0-2.58-1.22c-1-.36-2.1-.76-3.32-1.22a36.12,36.12,0,0,1-4.07-1.9,12.63,12.63,0,0,1-3-2.27,8.65,8.65,0,0,1-1.81-2.89,10.75,10.75,0,0,1-.6-3.76,8.67,8.67,0,0,1,1.25-4.68,10.93,10.93,0,0,1,3.37-3.4,16.27,16.27,0,0,1,4.8-2.08,21.76,21.76,0,0,1,5.55-.7,25.22,25.22,0,0,1,9.11,1.54v7.28a15.35,15.35,0,0,0-8.89-2.66A11.38,11.38,0,0,0,298,144a7.3,7.3,0,0,0-2.17.89,4.36,4.36,0,0,0-1.39,1.38,3.27,3.27,0,0,0-.51,1.78,3.74,3.74,0,0,0,.51,2,4.47,4.47,0,0,0,1.48,1.45,13.1,13.1,0,0,0,2.37,1.15c.92.35,2,.72,3.17,1.13a45.15,45.15,0,0,1,4.25,2,14.29,14.29,0,0,1,3.2,2.28A8.82,8.82,0,0,1,311,161a10.12,10.12,0,0,1,.71,4,9.06,9.06,0,0,1-1.29,4.87,10.76,10.76,0,0,1-3.44,3.44,16,16,0,0,1-5,2,25.9,25.9,0,0,1-5.93.67A25,25,0,0,1,285.66,173.94ZM334,176q-8.49,0-13.56-5.15t-5.07-13.63q0-9.25,5.28-14.44t14.25-5.2q8.6,0,13.4,5.05t4.8,14q0,8.78-5.18,14.06T334,176Zm.39-31.79a9.49,9.49,0,0,0-7.7,3.4q-2.84,3.41-2.83,9.39c0,3.85.95,6.88,2.87,9.09a9.61,9.61,0,0,0,7.66,3.31,9.13,9.13,0,0,0,7.55-3.26c1.75-2.17,2.63-5.27,2.63-9.28s-.88-7.16-2.63-9.35A9.1,9.1,0,0,0,334.42,144.16Zm44.86-16.63a7.6,7.6,0,0,0-3.83-1q-6.06,0-6.06,6.85v5h8.53v6.52h-8.49v30.18h-8.32V144.91h-6.27v-6.52h6.27v-5.95a11.57,11.57,0,0,1,3.8-9.15,15.89,15.89,0,0,1,14.37-2.67Zm24.49,47.16a14.41,14.41,0,0,1-6.41,1.22q-10.68,0-10.68-10.25V144.91h-6.13v-6.52h6.13V129.9l8.31-2.37v10.86h8.78v6.52H395v18.35c0,2.17.4,3.73,1.18,4.66a4.94,4.94,0,0,0,3.95,1.4,5.72,5.72,0,0,0,3.65-1.22Zm44.42-47.16a7.6,7.6,0,0,0-3.83-1q-6.06,0-6.06,6.85v5h8.53v6.52h-8.49v30.18H430V144.91h-6.27v-6.52H430v-5.95a11.57,11.57,0,0,1,3.8-9.15,15.89,15.89,0,0,1,14.37-2.67Zm19,48.42q-8.49,0-13.56-5.15t-5.07-13.63q0-9.25,5.28-14.44t14.25-5.2q8.6,0,13.4,5.05t4.8,14q0,8.78-5.18,14.06T467.18,176Zm.39-31.79a9.49,9.49,0,0,0-7.7,3.4Q457,151,457,157c0,3.85.95,6.88,2.87,9.09a9.61,9.61,0,0,0,7.66,3.31,9.13,9.13,0,0,0,7.55-3.26c1.75-2.17,2.63-5.27,2.63-9.28s-.88-7.16-2.63-9.35A9.1,9.1,0,0,0,467.57,144.16Zm46.25,2.15a6.87,6.87,0,0,0-4.33-1.18,7.44,7.44,0,0,0-6.17,3.33q-2.47,3.33-2.47,9.07v17.56h-8.32v-36.7h8.32V146H501a12.84,12.84,0,0,1,3.75-6,8.45,8.45,0,0,1,5.64-2.16,6.93,6.93,0,0,1,3.44.68ZM534.77,173v-8.78a13.52,13.52,0,0,0,2.81,1.94,21.73,21.73,0,0,0,3.46,1.45,27.17,27.17,0,0,0,3.66.91,19.06,19.06,0,0,0,3.37.33q5.37,0,8-1.79a5.9,5.9,0,0,0,2.64-5.2,5.61,5.61,0,0,0-.88-3.17,9.22,9.22,0,0,0-2.45-2.46,26.36,26.36,0,0,0-3.71-2.13c-1.42-.68-2.95-1.39-4.57-2.13-1.75-.93-3.37-1.88-4.88-2.83A21.62,21.62,0,0,1,538.3,146a13.44,13.44,0,0,1-2.62-3.93,12.82,12.82,0,0,1-.95-5.12,11.88,11.88,0,0,1,1.63-6.29,13.75,13.75,0,0,1,4.31-4.41,19.62,19.62,0,0,1,6.07-2.58,28.93,28.93,0,0,1,7-.84q8.07,0,11.75,1.83v8.42q-4.37-3.15-11.25-3.16a20.16,20.16,0,0,0-3.78.36,11.68,11.68,0,0,0-3.37,1.18,7.28,7.28,0,0,0-2.41,2.12,5.13,5.13,0,0,0-.94,3.12,5.89,5.89,0,0,0,.72,3,7.62,7.62,0,0,0,2.1,2.29,21,21,0,0,0,3.37,2c1.32.66,2.86,1.37,4.6,2.13q2.68,1.4,5.07,2.94a23.8,23.8,0,0,1,4.19,3.4,15.23,15.23,0,0,1,2.87,4.14,12.26,12.26,0,0,1,1.06,5.18,12.15,12.15,0,0,1-5.83,11,18.88,18.88,0,0,1-6.14,2.43,34.17,34.17,0,0,1-7.35.76c-.86,0-1.91-.07-3.17-.2s-2.54-.32-3.85-.57a37,37,0,0,1-3.73-.92A11.68,11.68,0,0,1,534.77,173Zm56.79,1.65a14.41,14.41,0,0,1-6.41,1.22q-10.68,0-10.68-10.25V144.91h-6.13v-6.52h6.13V129.9l8.31-2.37v10.86h8.78v6.52h-8.78v18.35c0,2.17.4,3.73,1.18,4.66a4.94,4.94,0,0,0,3.95,1.4,5.72,5.72,0,0,0,3.65-1.22Zm34.16.4h-8.07v-5.74h-.14a12.14,12.14,0,0,1-11.15,6.6c-3.6,0-6.43-1-8.47-2.94a10.29,10.29,0,0,1-3.07-7.78q0-10.39,12-12.11l10.9-1.54q0-7.85-7.46-7.85a17.69,17.69,0,0,0-11.82,4.51V141a25.82,25.82,0,0,1,13.4-3.44q13.91,0,13.91,13.69Zm-8-18L610,158.14a12.31,12.31,0,0,0-5.39,1.73q-1.82,1.27-1.81,4.47a4.88,4.88,0,0,0,1.67,3.81,6.44,6.44,0,0,0,4.46,1.49A8.24,8.24,0,0,0,615.2,167a9.47,9.47,0,0,0,2.49-6.72Zm35.53-10.75a6.87,6.87,0,0,0-4.33-1.18,7.44,7.44,0,0,0-6.17,3.33c-1.64,2.22-2.47,5.24-2.47,9.07v17.56h-8.31v-36.7h8.31V146h.14a12.91,12.91,0,0,1,3.75-6,8.45,8.45,0,0,1,5.64-2.16,6.93,6.93,0,0,1,3.44.68Zm25.85,28.38a14.41,14.41,0,0,1-6.41,1.22q-10.68,0-10.68-10.25V144.91h-6.13v-6.52H662V129.9l8.32-2.37v10.86h8.77v6.52H670.3v18.35c0,2.17.39,3.73,1.18,4.66a4.91,4.91,0,0,0,3.94,1.4,5.7,5.7,0,0,0,3.65-1.22Zm38,.4h-8.31v-5.81h-.15A12,12,0,0,1,697.35,176q-13,0-13-15.63V138.39h8.32v21.07q0,9.9,7.63,9.89a7.71,7.71,0,0,0,6.07-2.72,10.44,10.44,0,0,0,2.39-7.13V138.39h8.31Zm15-5.41h-.15V192H723.6V138.39h8.31v6.45h.15q4.26-7.31,12.47-7.31,7,0,10.89,4.91t3.91,13.19q0,9.17-4.41,14.69a14.58,14.58,0,0,1-12,5.52A12,12,0,0,1,732.06,169.68Zm-.22-14.48v4.55a9.77,9.77,0,0,0,2.56,6.81,9,9,0,0,0,13.76-.81q2.64-3.6,2.64-10.05c0-3.61-.82-6.43-2.46-8.48a8.06,8.06,0,0,0-6.64-3.06,9,9,0,0,0-7.15,3.15A11.67,11.67,0,0,0,731.84,155.2Zm31.52,18.74v-7.7a16.63,16.63,0,0,0,10.29,3.54c5,0,7.52-1.48,7.52-4.44a3.47,3.47,0,0,0-.64-2.13,6,6,0,0,0-1.74-1.56,13.47,13.47,0,0,0-2.58-1.22c-1-.36-2.1-.76-3.31-1.22a35.31,35.31,0,0,1-4.07-1.9,12.43,12.43,0,0,1-3-2.27,8.65,8.65,0,0,1-1.81-2.89,10.51,10.51,0,0,1-.61-3.76,8.76,8.76,0,0,1,1.25-4.68,10.93,10.93,0,0,1,3.37-3.4,16.27,16.27,0,0,1,4.8-2.08,21.89,21.89,0,0,1,5.56-.7,25.17,25.17,0,0,1,9.1,1.54v7.28a15.33,15.33,0,0,0-8.89-2.66,11.24,11.24,0,0,0-2.84.33,7.19,7.19,0,0,0-2.17.89,4.3,4.3,0,0,0-1.4,1.38,3.34,3.34,0,0,0-.5,1.78,3.83,3.83,0,0,0,.5,2,4.41,4.41,0,0,0,1.49,1.45,12.67,12.67,0,0,0,2.36,1.15c.92.35,2,.72,3.17,1.13a44,44,0,0,1,4.25,2,14.36,14.36,0,0,1,3.21,2.28,8.94,8.94,0,0,1,2,2.94,9.93,9.93,0,0,1,.72,4,9.06,9.06,0,0,1-1.29,4.87,10.86,10.86,0,0,1-3.44,3.44,16.06,16.06,0,0,1-5,2,25.84,25.84,0,0,1-5.93.67A25,25,0,0,1,763.36,173.94Z"/></svg>