<svg xmlns="http://www.w3.org/2000/svg" xmlns:xlink="http://www.w3.org/1999/xlink" width="120" zoomAndPan="magnify" viewBox="0 0 180 44.999999" height="30" preserveAspectRatio="xMidYMid meet" version="1.0"><defs><g/></defs><g fill="#000000" fill-opacity="1"><g transform="translate(2.250002, 31.246259)"><g><path d="M 3.421875 -15.796875 L 13.640625 -9.484375 L 13.640625 -7.1875 L 3.546875 -0.875 L 2.34375 -2.53125 L 11.734375 -8.328125 L 2.34375 -14.109375 Z M 3.421875 -15.796875 "/></g></g></g><g fill="#000000" fill-opacity="1"><g transform="translate(18.204329, 31.246259)"><g><path d="M 13.78125 -0.703125 C 13.3125 -0.378906 12.734375 -0.128906 12.046875 0.046875 C 11.359375 0.222656 10.691406 0.3125 10.046875 0.3125 C 8.535156 0.3125 7.367188 -0.0820312 6.546875 -0.875 C 5.734375 -1.664062 5.328125 -2.679688 5.328125 -3.921875 L 5.328125 -12.265625 L 2.109375 -12.265625 L 2.109375 -14 L 5.328125 -14 L 5.328125 -17.171875 L 7.5625 -17.453125 L 7.5625 -14 L 12.40625 -14 L 12.140625 -12.265625 L 7.5625 -12.265625 L 7.5625 -3.953125 C 7.5625 -3.171875 7.765625 -2.578125 8.171875 -2.171875 C 8.585938 -1.765625 9.273438 -1.5625 10.234375 -1.5625 C 10.753906 -1.5625 11.238281 -1.617188 11.6875 -1.734375 C 12.132812 -1.859375 12.546875 -2.019531 12.921875 -2.21875 Z M 13.78125 -0.703125 "/></g></g></g><g fill="#000000" fill-opacity="1"><g transform="translate(34.158657, 31.246259)"><g><path d="M 4.421875 -6.203125 C 4.472656 -5.128906 4.679688 -4.25 5.046875 -3.5625 C 5.421875 -2.875 5.914062 -2.367188 6.53125 -2.046875 C 7.144531 -1.722656 7.804688 -1.5625 8.515625 -1.5625 C 9.234375 -1.5625 9.882812 -1.664062 10.46875 -1.875 C 11.050781 -2.082031 11.648438 -2.394531 12.265625 -2.8125 L 13.3125 -1.34375 C 12.65625 -0.832031 11.90625 -0.425781 11.0625 -0.125 C 10.226562 0.164062 9.375 0.3125 8.5 0.3125 C 7.144531 0.3125 5.988281 0.00390625 5.03125 -0.609375 C 4.070312 -1.222656 3.34375 -2.078125 2.84375 -3.171875 C 2.34375 -4.265625 2.09375 -5.535156 2.09375 -6.984375 C 2.09375 -8.398438 2.34375 -9.65625 2.84375 -10.75 C 3.351562 -11.851562 4.0625 -12.71875 4.96875 -13.34375 C 5.882812 -13.976562 6.960938 -14.296875 8.203125 -14.296875 C 9.378906 -14.296875 10.394531 -14.015625 11.25 -13.453125 C 12.101562 -12.898438 12.753906 -12.113281 13.203125 -11.09375 C 13.660156 -10.070312 13.890625 -8.851562 13.890625 -7.4375 C 13.890625 -7.195312 13.882812 -6.972656 13.875 -6.765625 C 13.875 -6.554688 13.863281 -6.367188 13.84375 -6.203125 Z M 8.234375 -12.453125 C 7.191406 -12.453125 6.320312 -12.082031 5.625 -11.34375 C 4.9375 -10.613281 4.539062 -9.476562 4.4375 -7.9375 L 11.734375 -7.9375 C 11.710938 -9.4375 11.382812 -10.5625 10.75 -11.3125 C 10.125 -12.070312 9.285156 -12.453125 8.234375 -12.453125 Z M 8.234375 -12.453125 "/></g></g></g><g fill="#000000" fill-opacity="1"><g transform="translate(50.112984, 31.246259)"><g><path d="M 2.671875 0 L 2.671875 -14 L 4.578125 -14 L 4.75 -12.0625 C 5.3125 -12.78125 6.019531 -13.332031 6.875 -13.71875 C 7.738281 -14.101562 8.570312 -14.296875 9.375 -14.296875 C 10.75 -14.296875 11.75 -13.929688 12.375 -13.203125 C 13 -12.472656 13.3125 -11.460938 13.3125 -10.171875 L 13.3125 0 L 11.078125 0 L 11.078125 -8.515625 C 11.078125 -9.472656 11.019531 -10.25 10.90625 -10.84375 C 10.800781 -11.4375 10.582031 -11.863281 10.25 -12.125 C 9.914062 -12.394531 9.394531 -12.53125 8.6875 -12.53125 C 8.132812 -12.53125 7.613281 -12.410156 7.125 -12.171875 C 6.644531 -11.941406 6.21875 -11.644531 5.84375 -11.28125 C 5.46875 -10.925781 5.15625 -10.566406 4.90625 -10.203125 L 4.90625 0 Z M 2.671875 0 "/></g></g></g><g fill="#000000" fill-opacity="1"><g transform="translate(66.067312, 31.246259)"><g><path d="M 7.4375 -1.546875 C 8.507812 -1.546875 9.359375 -1.742188 9.984375 -2.140625 C 10.609375 -2.546875 10.921875 -3.085938 10.921875 -3.765625 C 10.921875 -4.191406 10.84375 -4.554688 10.6875 -4.859375 C 10.53125 -5.171875 10.210938 -5.453125 9.734375 -5.703125 C 9.253906 -5.953125 8.519531 -6.203125 7.53125 -6.453125 C 6.5625 -6.691406 5.71875 -6.96875 5 -7.28125 C 4.289062 -7.59375 3.738281 -8 3.34375 -8.5 C 2.945312 -9.007812 2.75 -9.671875 2.75 -10.484375 C 2.75 -11.265625 2.972656 -11.941406 3.421875 -12.515625 C 3.867188 -13.085938 4.488281 -13.523438 5.28125 -13.828125 C 6.082031 -14.140625 7.015625 -14.296875 8.078125 -14.296875 C 9.203125 -14.296875 10.179688 -14.144531 11.015625 -13.84375 C 11.847656 -13.550781 12.5625 -13.1875 13.15625 -12.75 L 12.171875 -11.234375 C 11.640625 -11.597656 11.050781 -11.894531 10.40625 -12.125 C 9.769531 -12.363281 9 -12.484375 8.09375 -12.484375 C 7 -12.484375 6.21875 -12.3125 5.75 -11.96875 C 5.289062 -11.632812 5.0625 -11.195312 5.0625 -10.65625 C 5.0625 -10.25 5.175781 -9.910156 5.40625 -9.640625 C 5.632812 -9.367188 6.015625 -9.125 6.546875 -8.90625 C 7.085938 -8.6875 7.835938 -8.445312 8.796875 -8.1875 C 9.703125 -7.945312 10.492188 -7.660156 11.171875 -7.328125 C 11.847656 -6.992188 12.378906 -6.550781 12.765625 -6 C 13.148438 -5.445312 13.34375 -4.738281 13.34375 -3.875 C 13.34375 -2.875 13.054688 -2.066406 12.484375 -1.453125 C 11.921875 -0.835938 11.1875 -0.390625 10.28125 -0.109375 C 9.382812 0.171875 8.4375 0.3125 7.4375 0.3125 C 6.164062 0.3125 5.082031 0.128906 4.1875 -0.234375 C 3.300781 -0.609375 2.554688 -1.054688 1.953125 -1.578125 L 3.234375 -3.0625 C 3.785156 -2.601562 4.414062 -2.234375 5.125 -1.953125 C 5.84375 -1.679688 6.613281 -1.546875 7.4375 -1.546875 Z M 7.4375 -1.546875 "/></g></g></g><g fill="#000000" fill-opacity="1"><g transform="translate(82.021639, 31.246259)"><g><path d="M 8 -14.296875 C 9.320312 -14.296875 10.425781 -13.992188 11.3125 -13.390625 C 12.207031 -12.796875 12.878906 -11.953125 13.328125 -10.859375 C 13.773438 -9.773438 14 -8.488281 14 -7 C 14 -5.570312 13.769531 -4.304688 13.3125 -3.203125 C 12.851562 -2.109375 12.175781 -1.25 11.28125 -0.625 C 10.394531 0 9.296875 0.3125 7.984375 0.3125 C 6.671875 0.3125 5.566406 0.0078125 4.671875 -0.59375 C 3.773438 -1.195312 3.097656 -2.046875 2.640625 -3.140625 C 2.179688 -4.234375 1.953125 -5.515625 1.953125 -6.984375 C 1.953125 -8.421875 2.179688 -9.691406 2.640625 -10.796875 C 3.109375 -11.898438 3.789062 -12.757812 4.6875 -13.375 C 5.582031 -13.988281 6.6875 -14.296875 8 -14.296875 Z M 8 -12.46875 C 6.800781 -12.46875 5.890625 -12.019531 5.265625 -11.125 C 4.648438 -10.238281 4.34375 -8.859375 4.34375 -6.984375 C 4.34375 -5.140625 4.644531 -3.769531 5.25 -2.875 C 5.863281 -1.976562 6.773438 -1.53125 7.984375 -1.53125 C 9.179688 -1.53125 10.082031 -1.976562 10.6875 -2.875 C 11.300781 -3.769531 11.609375 -5.144531 11.609375 -7 C 11.609375 -8.863281 11.304688 -10.238281 10.703125 -11.125 C 10.097656 -12.019531 9.195312 -12.46875 8 -12.46875 Z M 8 -12.46875 "/></g></g></g><g fill="#000000" fill-opacity="1"><g transform="translate(97.975967, 31.246259)"><g><path d="M 2.8125 0 L 2.8125 -1.71875 L 4.984375 -1.71875 L 4.984375 -12.28125 L 2.8125 -12.28125 L 2.8125 -14 L 6.6875 -14 L 7.09375 -10.6875 C 7.632812 -11.84375 8.289062 -12.734375 9.0625 -13.359375 C 9.832031 -13.992188 10.851562 -14.3125 12.125 -14.3125 C 12.519531 -14.3125 12.867188 -14.28125 13.171875 -14.21875 C 13.472656 -14.164062 13.785156 -14.09375 14.109375 -14 L 13.453125 -12 C 13.160156 -12.082031 12.894531 -12.144531 12.65625 -12.1875 C 12.414062 -12.226562 12.140625 -12.25 11.828125 -12.25 C 10.753906 -12.25 9.832031 -11.863281 9.0625 -11.09375 C 8.289062 -10.332031 7.675781 -9.179688 7.21875 -7.640625 L 7.21875 -1.71875 L 10.0625 -1.71875 L 10.0625 0 Z M 11.953125 -9.265625 L 11.953125 -12.3125 L 12.1875 -14 L 14.109375 -14 L 13.78125 -9.265625 Z M 11.953125 -9.265625 "/></g></g></g><path fill="#000000" d="M 113.507812 4.429688 L 178.09375 4.429688 L 178.09375 39.355469 L 113.507812 39.355469 L 113.507812 4.429688 " fill-opacity="1" fill-rule="nonzero"/><g fill="#ffffff" fill-opacity="1"><g transform="translate(113.931352, 30.140945)"><g><path d="M 12.703125 -3.0625 C 12.703125 -2.5 12.789062 -2.085938 12.96875 -1.828125 C 13.15625 -1.578125 13.445312 -1.390625 13.84375 -1.265625 L 13.296875 0.3125 C 12.691406 0.226562 12.160156 0.0351562 11.703125 -0.265625 C 11.253906 -0.578125 10.929688 -1.039062 10.734375 -1.65625 C 10.222656 -1.007812 9.59375 -0.519531 8.84375 -0.1875 C 8.09375 0.144531 7.257812 0.3125 6.34375 0.3125 C 4.9375 0.3125 3.832031 -0.0820312 3.03125 -0.875 C 2.226562 -1.664062 1.828125 -2.710938 1.828125 -4.015625 C 1.828125 -5.460938 2.390625 -6.570312 3.515625 -7.34375 C 4.640625 -8.113281 6.265625 -8.5 8.390625 -8.5 L 10.453125 -8.5 L 10.453125 -9.671875 C 10.453125 -10.679688 10.15625 -11.394531 9.5625 -11.8125 C 8.976562 -12.238281 8.160156 -12.453125 7.109375 -12.453125 C 6.648438 -12.453125 6.109375 -12.394531 5.484375 -12.28125 C 4.867188 -12.164062 4.195312 -11.984375 3.46875 -11.734375 L 2.890625 -13.421875 C 3.742188 -13.734375 4.546875 -13.957031 5.296875 -14.09375 C 6.054688 -14.226562 6.773438 -14.296875 7.453125 -14.296875 C 9.203125 -14.296875 10.515625 -13.890625 11.390625 -13.078125 C 12.265625 -12.265625 12.703125 -11.160156 12.703125 -9.765625 Z M 6.921875 -1.390625 C 7.609375 -1.390625 8.265625 -1.566406 8.890625 -1.921875 C 9.523438 -2.273438 10.046875 -2.757812 10.453125 -3.375 L 10.453125 -6.984375 L 8.4375 -6.984375 C 6.882812 -6.984375 5.789062 -6.71875 5.15625 -6.1875 C 4.53125 -5.65625 4.21875 -4.941406 4.21875 -4.046875 C 4.21875 -3.171875 4.441406 -2.507812 4.890625 -2.0625 C 5.335938 -1.613281 6.015625 -1.390625 6.921875 -1.390625 Z M 6.921875 -1.390625 "/></g></g></g><g fill="#ffffff" fill-opacity="1"><g transform="translate(129.87827, 30.140945)"><g><path d="M 9 -1.625 C 9.695312 -1.625 10.347656 -1.738281 10.953125 -1.96875 C 11.566406 -2.195312 12.128906 -2.488281 12.640625 -2.84375 L 13.734375 -1.390625 C 13.117188 -0.859375 12.378906 -0.441406 11.515625 -0.140625 C 10.660156 0.160156 9.820312 0.3125 9 0.3125 C 7.613281 0.3125 6.425781 0.015625 5.4375 -0.578125 C 4.457031 -1.179688 3.710938 -2.023438 3.203125 -3.109375 C 2.691406 -4.203125 2.4375 -5.476562 2.4375 -6.9375 C 2.4375 -8.34375 2.691406 -9.597656 3.203125 -10.703125 C 3.722656 -11.816406 4.472656 -12.691406 5.453125 -13.328125 C 6.429688 -13.972656 7.625 -14.296875 9.03125 -14.296875 C 9.925781 -14.296875 10.765625 -14.160156 11.546875 -13.890625 C 12.328125 -13.617188 13.046875 -13.210938 13.703125 -12.671875 L 12.625 -11.1875 C 12.03125 -11.601562 11.429688 -11.914062 10.828125 -12.125 C 10.234375 -12.332031 9.625 -12.4375 9 -12.4375 C 7.789062 -12.4375 6.796875 -11.984375 6.015625 -11.078125 C 5.242188 -10.171875 4.859375 -8.789062 4.859375 -6.9375 C 4.859375 -5.695312 5.035156 -4.679688 5.390625 -3.890625 C 5.753906 -3.109375 6.25 -2.535156 6.875 -2.171875 C 7.5 -1.804688 8.207031 -1.625 9 -1.625 Z M 9 -1.625 "/></g></g></g><g fill="#ffffff" fill-opacity="1"><g transform="translate(145.825187, 30.140945)"><g><path d="M 13.78125 -0.703125 C 13.3125 -0.378906 12.734375 -0.128906 12.046875 0.046875 C 11.359375 0.222656 10.691406 0.3125 10.046875 0.3125 C 8.535156 0.3125 7.367188 -0.0820312 6.546875 -0.875 C 5.734375 -1.664062 5.328125 -2.679688 5.328125 -3.921875 L 5.328125 -12.265625 L 2.109375 -12.265625 L 2.109375 -14 L 5.328125 -14 L 5.328125 -17.171875 L 7.5625 -17.453125 L 7.5625 -14 L 12.40625 -14 L 12.140625 -12.265625 L 7.5625 -12.265625 L 7.5625 -3.953125 C 7.5625 -3.171875 7.765625 -2.578125 8.171875 -2.171875 C 8.585938 -1.765625 9.273438 -1.5625 10.234375 -1.5625 C 10.753906 -1.5625 11.238281 -1.617188 11.6875 -1.734375 C 12.132812 -1.859375 12.546875 -2.019531 12.921875 -2.21875 Z M 13.78125 -0.703125 "/></g></g></g><g fill="#ffffff" fill-opacity="1"><g transform="translate(161.779006, 30.140945)"><g/></g></g><path stroke-linecap="butt" transform="matrix(-0.759124, 0, 0, -0.75, 172.320958, 31.907422)" fill="none" stroke-linejoin="miter" d="M 0.000850573 3.001563 L 12.854893 3.001563 " stroke="#ffffff" stroke-width="6" stroke-opacity="1" stroke-miterlimit="4"/></svg>