<svg width="256" height="256" viewBox="0 0 194 194" fill="none" xmlns="http://www.w3.org/2000/svg">
<g clip-path="url(#clip0_1_2)">
<path d="M238.266 -45H-45V238.266H238.266V-45Z" fill="#181818"/>
<path d="M27.8734 168.973L76.7637 120.083L71.7528 115.072L22.8625 163.962L27.8734 168.973Z" fill="white"/>
<path d="M123.59 163.322H22.8655V170.4H123.59V163.322Z" fill="white"/>
<path d="M123.589 170.399V129.254H116.511V170.399H123.589Z" fill="white"/>
<path d="M123.589 110.817V69.6716H116.511V110.817H123.589Z" fill="white"/>
<path d="M22.8639 76.7422L123.588 76.7422V69.6642L22.8639 69.6642V76.7422Z" fill="white"/>
<path d="M22.8679 69.6762L22.8679 170.4H29.9459L29.9459 69.6762H22.8679Z" fill="white"/>
<path d="M165.393 24.2931L116.502 73.1833L121.513 78.1942L170.404 29.3039L165.393 24.2931Z" fill="white"/>
<path d="M69.6774 82.4493L69.6774 123.595H76.7553L76.7553 82.4493H69.6774Z" fill="white"/>
<path d="M170.402 116.524L69.678 116.524V123.602L170.402 123.602V116.524Z" fill="white"/>
<path d="M170.398 123.59V22.8659H163.32V123.59H170.398Z" fill="white"/>
<path d="M69.6764 29.944L170.401 29.944V22.866L69.6764 22.866V29.944Z" fill="white"/>
<path d="M69.6772 22.867L69.6772 64.0123H76.7552L76.7552 22.867H69.6772Z" fill="white"/>
</g>
<defs>
<clipPath id="clip0_1_2">
<rect width="194" height="194" fill="white"/>
</clipPath>
</defs>
</svg>
