<svg width="62" height="62" viewBox="0 0 62 62" fill="none" xmlns="http://www.w3.org/2000/svg">
<g clip-path="url(#clip0_138_2)">
<path d="M91 -29H-29V91H91V-29Z" fill="white"/>
<path d="M1.87139 61.6454L22.5828 40.934L20.46 38.8113L-0.25136 59.5226L1.87139 61.6454Z" fill="#181818"/>
<path d="M42.4197 59.2515H-0.250122V62.2499H42.4197V59.2515Z" fill="#181818"/>
<path d="M42.4193 62.2495V44.8192H39.4209V62.2495H42.4193Z" fill="#181818"/>
<path d="M42.4193 37.0088V19.5784H39.4208V37.0088H42.4193Z" fill="#181818"/>
<path d="M-0.250797 22.5736L42.419 22.5736V19.5752L-0.250797 19.5752V22.5736Z" fill="#181818"/>
<path d="M-0.249084 19.5802L-0.249084 62.25H2.74935L2.74935 19.5802H-0.249084Z" fill="#181818"/>
<path d="M60.1286 0.354607L39.4172 21.066L41.54 23.1887L62.2514 2.47736L60.1286 0.354607Z" fill="#181818"/>
<path d="M19.5807 24.9912L19.5807 42.4216H22.5792L22.5792 24.9912H19.5807Z" fill="#181818"/>
<path d="M62.2508 39.4264L19.581 39.4264V42.4248L62.2508 42.4248V39.4264Z" fill="#181818"/>
<path d="M62.2491 42.4198V-0.25L59.2507 -0.25V42.4198H62.2491Z" fill="#181818"/>
<path d="M19.5804 2.74847L62.2502 2.74847V-0.249943L19.5804 -0.249943V2.74847Z" fill="#181818"/>
<path d="M19.5807 -0.249538L19.5807 17.1808H22.5792L22.5792 -0.249538H19.5807Z" fill="#181818"/>
</g>
<defs>
<clipPath id="clip0_138_2">
<rect width="62" height="62" fill="white"/>
</clipPath>
</defs>
</svg>
