<svg width="133" height="133" viewBox="0 0 133 133" fill="none" xmlns="http://www.w3.org/2000/svg">
<g clip-path="url(#clip0_1_310)">
<path d="M4.52851 132.044L48.7128 87.8593L44.1842 83.3307L-3.07792e-05 127.515L4.52851 132.044Z" fill="#181818"/>
<path d="M91.0315 126.937H0.00268555V133.333H91.0315V126.937Z" fill="#181818"/>
<path d="M91.0307 133.332V96.1475H84.6341V133.332H91.0307Z" fill="#181818"/>
<path d="M91.0307 79.4853V42.3004H84.6341V79.4853H91.0307Z" fill="#181818"/>
<path d="M0.00123596 48.6904L91.0301 48.6904V42.2937L0.00123596 42.2937V48.6904Z" fill="#181818"/>
<path d="M0.00488281 42.3045L0.00488281 133.333H6.40153L6.40153 42.3045H0.00488281Z" fill="#181818"/>
<path d="M128.811 1.2898L84.6265 45.4741L89.155 50.0026L133.339 5.81833L128.811 1.2898Z" fill="#181818"/>
<path d="M42.3086 53.8481L42.3086 91.0329H48.7052L48.7052 53.8481H42.3086Z" fill="#181818"/>
<path d="M133.338 84.6429L42.3092 84.6429V91.0396L133.338 91.0396V84.6429Z" fill="#181818"/>
<path d="M133.334 91.0289V0L126.938 0V91.0289H133.334Z" fill="#181818"/>
<path d="M42.3078 6.39673L133.337 6.39673V0.000104904L42.3078 0.000104904V6.39673Z" fill="#181818"/>
<path d="M42.3086 0.000965118L42.3086 37.1858H48.7052L48.7052 0.000965118H42.3086Z" fill="#181818"/>
</g>
<defs>
<clipPath id="clip0_1_310">
<rect width="133" height="133" fill="white"/>
</clipPath>
</defs>
</svg>
