<svg width="515" height="119" viewBox="0 0 515 119" fill="none" xmlns="http://www.w3.org/2000/svg">
<path d="M133.071 86.3197V48.1597H118.311V44.3197H152.271V48.1597H137.511V86.3197H133.071ZM163.324 63.0997H185.524V66.8797H163.324V63.0997ZM163.804 82.4797H189.064V86.3197H159.364V44.3197H188.164V48.1597H163.804V82.4797ZM199.501 86.3197V44.3197H203.161L232.141 80.7997H230.221V44.3197H234.601V86.3197H230.941L202.021 49.8397H203.941V86.3197H199.501ZM259.89 86.6797C256.77 86.6797 253.77 86.1797 250.89 85.1797C248.05 84.1397 245.85 82.8197 244.29 81.2197L246.03 77.7997C247.51 79.2397 249.49 80.4597 251.97 81.4597C254.49 82.4197 257.13 82.8997 259.89 82.8997C262.53 82.8997 264.67 82.5797 266.31 81.9397C267.99 81.2597 269.21 80.3597 269.97 79.2397C270.77 78.1197 271.17 76.8797 271.17 75.5197C271.17 73.8797 270.69 72.5597 269.73 71.5597C268.81 70.5597 267.59 69.7797 266.07 69.2197C264.55 68.6197 262.87 68.0997 261.03 67.6597C259.19 67.2197 257.35 66.7597 255.51 66.2797C253.67 65.7597 251.97 65.0797 250.41 64.2397C248.89 63.3997 247.65 62.2997 246.69 60.9397C245.77 59.5397 245.31 57.7197 245.31 55.4797C245.31 53.3997 245.85 51.4997 246.93 49.7797C248.05 48.0197 249.75 46.6197 252.03 45.5797C254.31 44.4997 257.23 43.9597 260.79 43.9597C263.15 43.9597 265.49 44.2997 267.81 44.9797C270.13 45.6197 272.13 46.5197 273.81 47.6797L272.31 51.2197C270.51 50.0197 268.59 49.1397 266.55 48.5797C264.55 48.0197 262.61 47.7397 260.73 47.7397C258.21 47.7397 256.13 48.0797 254.49 48.7597C252.85 49.4397 251.63 50.3597 250.83 51.5197C250.07 52.6397 249.69 53.9197 249.69 55.3597C249.69 56.9997 250.15 58.3197 251.07 59.3197C252.03 60.3197 253.27 61.0997 254.79 61.6597C256.35 62.2197 258.05 62.7197 259.89 63.1597C261.73 63.5997 263.55 64.0797 265.35 64.5997C267.19 65.1197 268.87 65.7997 270.39 66.6397C271.95 67.4397 273.19 68.5197 274.11 69.8797C275.07 71.2397 275.55 73.0197 275.55 75.2197C275.55 77.2597 274.99 79.1597 273.87 80.9197C272.75 82.6397 271.03 84.0397 268.71 85.1197C266.43 86.1597 263.49 86.6797 259.89 86.6797ZM303.584 86.6797C300.424 86.6797 297.484 86.1597 294.764 85.1197C292.084 84.0397 289.744 82.5397 287.744 80.6197C285.784 78.6597 284.244 76.3997 283.124 73.8397C282.044 71.2397 281.504 68.3997 281.504 65.3197C281.504 62.2397 282.044 59.4197 283.124 56.8597C284.244 54.2597 285.784 51.9997 287.744 50.0797C289.744 48.1197 292.084 46.6197 294.764 45.5797C297.444 44.4997 300.384 43.9597 303.584 43.9597C306.744 43.9597 309.664 44.4997 312.344 45.5797C315.024 46.6197 317.344 48.0997 319.304 50.0197C321.304 51.9397 322.844 54.1997 323.924 56.7997C325.044 59.3997 325.604 62.2397 325.604 65.3197C325.604 68.3997 325.044 71.2397 323.924 73.8397C322.844 76.4397 321.304 78.6997 319.304 80.6197C317.344 82.5397 315.024 84.0397 312.344 85.1197C309.664 86.1597 306.744 86.6797 303.584 86.6797ZM303.584 82.7197C306.104 82.7197 308.424 82.2997 310.544 81.4597C312.704 80.5797 314.564 79.3597 316.124 77.7997C317.724 76.1997 318.964 74.3597 319.844 72.2797C320.724 70.1597 321.164 67.8397 321.164 65.3197C321.164 62.7997 320.724 60.4997 319.844 58.4197C318.964 56.2997 317.724 54.4597 316.124 52.8997C314.564 51.2997 312.704 50.0797 310.544 49.2397C308.424 48.3597 306.104 47.9197 303.584 47.9197C301.064 47.9197 298.724 48.3597 296.564 49.2397C294.404 50.0797 292.524 51.2997 290.924 52.8997C289.364 54.4597 288.124 56.2997 287.204 58.4197C286.324 60.4997 285.884 62.7997 285.884 65.3197C285.884 67.7997 286.324 70.0997 287.204 72.2197C288.124 74.3397 289.364 76.1997 290.924 77.7997C292.524 79.3597 294.404 80.5797 296.564 81.4597C298.724 82.2997 301.064 82.7197 303.584 82.7197ZM335.556 86.3197V44.3197H351.276C354.836 44.3197 357.896 44.8997 360.456 46.0597C363.016 47.1797 364.976 48.8197 366.336 50.9797C367.736 53.0997 368.436 55.6797 368.436 58.7197C368.436 61.6797 367.736 64.2397 366.336 66.3997C364.976 68.5197 363.016 70.1597 360.456 71.3197C357.896 72.4397 354.836 72.9997 351.276 72.9997H338.016L339.996 70.9597V86.3197H335.556ZM364.236 86.3197L353.436 71.0797H358.236L369.096 86.3197H364.236ZM339.996 71.3197L338.016 69.2197H351.156C355.356 69.2197 358.536 68.2997 360.696 66.4597C362.896 64.6197 363.996 62.0397 363.996 58.7197C363.996 55.3597 362.896 52.7597 360.696 50.9197C358.536 49.0797 355.356 48.1597 351.156 48.1597H338.016L339.996 46.0597V71.3197ZM372.195 86.3197L391.395 44.3197H395.775L414.975 86.3197H410.295L392.655 46.8997H394.455L376.815 86.3197H372.195ZM379.755 75.0997L381.075 71.4997H405.495L406.815 75.0997H379.755ZM439.577 86.6797C436.417 86.6797 433.497 86.1597 430.817 85.1197C428.137 84.0397 425.817 82.5397 423.857 80.6197C421.897 78.6997 420.357 76.4397 419.237 73.8397C418.157 71.2397 417.617 68.3997 417.617 65.3197C417.617 62.2397 418.157 59.3997 419.237 56.7997C420.357 54.1997 421.897 51.9397 423.857 50.0197C425.857 48.0997 428.197 46.6197 430.877 45.5797C433.557 44.4997 436.477 43.9597 439.637 43.9597C442.677 43.9597 445.537 44.4797 448.217 45.5197C450.897 46.5197 453.157 48.0397 454.997 50.0797L452.177 52.8997C450.457 51.1397 448.557 49.8797 446.477 49.1197C444.397 48.3197 442.157 47.9197 439.757 47.9197C437.237 47.9197 434.897 48.3597 432.737 49.2397C430.577 50.0797 428.697 51.2997 427.097 52.8997C425.497 54.4597 424.237 56.2997 423.317 58.4197C422.437 60.4997 421.997 62.7997 421.997 65.3197C421.997 67.8397 422.437 70.1597 423.317 72.2797C424.237 74.3597 425.497 76.1997 427.097 77.7997C428.697 79.3597 430.577 80.5797 432.737 81.4597C434.897 82.2997 437.237 82.7197 439.757 82.7197C442.157 82.7197 444.397 82.3197 446.477 81.5197C448.557 80.7197 450.457 79.4397 452.177 77.6797L454.997 80.4997C453.157 82.5397 450.897 84.0797 448.217 85.1197C445.537 86.1597 442.657 86.6797 439.577 86.6797ZM472.095 86.3197V48.1597H457.335V44.3197H491.295V48.1597H476.535V86.3197H472.095Z" fill="#181818"/>
<path d="M14.0634 104.325L43.9523 74.4351L40.8889 71.3717L11 101.261L14.0634 104.325Z" fill="#181818"/>
<path d="M72.5792 100.87H11.0018V105.197H72.5792V100.87Z" fill="#181818"/>
<path d="M72.5786 105.197V80.042H68.2515V105.197H72.5786Z" fill="#181818"/>
<path d="M72.5786 68.7703V43.6154H68.2515V68.7703H72.5786Z" fill="#181818"/>
<path d="M11.0009 47.9381L72.5782 47.9381V43.6109L11.0009 43.6109V47.9381Z" fill="#181818"/>
<path d="M11.0033 43.6181L11.0033 105.197H15.3304L15.3304 43.6181H11.0033Z" fill="#181818"/>
<path d="M98.1353 15.8725L68.2465 45.7623L71.3098 48.8258L101.199 18.936L98.1353 15.8725Z" fill="#181818"/>
<path d="M39.62 51.4272L39.62 76.582H43.9471L43.9471 51.4272H39.62Z" fill="#181818"/>
<path d="M101.198 72.2594L39.6205 72.2594V76.5866L101.198 76.5866V72.2594Z" fill="#181818"/>
<path d="M101.195 76.5793V15H96.8682V76.5793H101.195Z" fill="#181818"/>
<path d="M39.6194 19.3273L101.197 19.3273V15.0001L39.6194 15.0001V19.3273Z" fill="#181818"/>
<path d="M39.62 15.0007L39.62 40.1555H43.9471L43.9471 15.0007H39.62Z" fill="#181818"/>
</svg>
