<svg width="480" height="108" viewBox="0 0 460 108" fill="none" xmlns="http://www.w3.org/2000/svg">
<path d="M141.699 88.1657V74.5977H136.451V73.2324H148.525V74.5977H143.277V88.1657H141.699ZM156.445 76.8591C157.355 76.8591 158.151 77.0368 158.834 77.3924C159.531 77.7337 160.071 78.2599 160.455 78.9711C160.854 79.6822 161.053 80.5782 161.053 81.6591V88.1657H159.538V81.8084C159.538 80.6279 159.239 79.7391 158.642 79.1417C158.059 78.5302 157.234 78.2244 156.167 78.2244C155.371 78.2244 154.674 78.3879 154.077 78.7151C153.494 79.0279 153.039 79.4902 152.711 80.1017C152.399 80.6991 152.242 81.4244 152.242 82.2777V88.1657H150.727V72.3364H152.242V80.0377L151.943 79.4617C152.299 78.6511 152.868 78.0182 153.65 77.5631C154.432 77.0937 155.364 76.8591 156.445 76.8591ZM169.901 88.2724C168.735 88.2724 167.711 88.0306 166.829 87.5471C165.948 87.0493 165.258 86.3737 164.76 85.5204C164.262 84.6528 164.013 83.6644 164.013 82.5551C164.013 81.4457 164.248 80.4644 164.717 79.6111C165.201 78.7577 165.855 78.0893 166.68 77.6057C167.519 77.1079 168.458 76.8591 169.496 76.8591C170.549 76.8591 171.48 77.1008 172.291 77.5844C173.116 78.0537 173.763 78.7222 174.232 79.5897C174.701 80.4431 174.936 81.4315 174.936 82.5551C174.936 82.6262 174.929 82.7044 174.915 82.7897C174.915 82.8608 174.915 82.9391 174.915 83.0244H165.165V81.8937H174.104L173.507 82.3417C173.507 81.5311 173.329 80.8128 172.973 80.1871C172.632 79.5471 172.163 79.0493 171.565 78.6937C170.968 78.3382 170.278 78.1604 169.496 78.1604C168.728 78.1604 168.038 78.3382 167.427 78.6937C166.815 79.0493 166.339 79.5471 165.997 80.1871C165.656 80.8271 165.485 81.5595 165.485 82.3844V82.6191C165.485 83.4724 165.67 84.2262 166.04 84.8804C166.424 85.5204 166.95 86.0253 167.619 86.3951C168.301 86.7506 169.077 86.9284 169.944 86.9284C170.627 86.9284 171.26 86.8075 171.843 86.5657C172.44 86.3239 172.952 85.9542 173.379 85.4564L174.232 86.4377C173.734 87.0351 173.109 87.4902 172.355 87.8031C171.615 88.1159 170.797 88.2724 169.901 88.2724ZM187.314 88.1657L182.28 73.2324H183.901L188.616 87.2911H187.805L192.669 73.2324H194.12L198.92 87.2911H198.152L202.909 73.2324H204.424L199.389 88.1657H197.725L193.138 74.8324H193.565L188.957 88.1657H187.314ZM210.709 88.2724C209.629 88.2724 208.654 88.0306 207.787 87.5471C206.933 87.0493 206.258 86.3737 205.76 85.5204C205.262 84.6528 205.013 83.6644 205.013 82.5551C205.013 81.4315 205.262 80.4431 205.76 79.5897C206.258 78.7364 206.933 78.0679 207.787 77.5844C208.64 77.1008 209.614 76.8591 210.709 76.8591C211.819 76.8591 212.8 77.1008 213.653 77.5844C214.521 78.0679 215.197 78.7364 215.68 79.5897C216.178 80.4431 216.427 81.4315 216.427 82.5551C216.427 83.6644 216.178 84.6528 215.68 85.5204C215.197 86.3737 214.521 87.0493 213.653 87.5471C212.786 88.0306 211.805 88.2724 210.709 88.2724ZM210.709 86.9284C211.52 86.9284 212.238 86.7506 212.864 86.3951C213.49 86.0253 213.981 85.5133 214.336 84.8591C214.706 84.1906 214.891 83.4226 214.891 82.5551C214.891 81.6733 214.706 80.9053 214.336 80.2511C213.981 79.5968 213.49 79.0919 212.864 78.7364C212.238 78.3666 211.527 78.1817 210.731 78.1817C209.934 78.1817 209.223 78.3666 208.597 78.7364C207.972 79.0919 207.474 79.5968 207.104 80.2511C206.734 80.9053 206.549 81.6733 206.549 82.5551C206.549 83.4226 206.734 84.1906 207.104 84.8591C207.474 85.5133 207.972 86.0253 208.597 86.3951C209.223 86.7506 209.927 86.9284 210.709 86.9284ZM219.519 88.1657V76.9657H220.97V80.0164L220.82 79.4831C221.133 78.6297 221.66 77.9826 222.399 77.5417C223.139 77.0866 224.056 76.8591 225.151 76.8591V78.3311C225.094 78.3311 225.037 78.3311 224.98 78.3311C224.924 78.3168 224.867 78.3097 224.81 78.3097C223.629 78.3097 222.705 78.6724 222.036 79.3977C221.368 80.1088 221.034 81.1257 221.034 82.4484V88.1657H219.519ZM227.915 88.1657V72.3364H229.43V88.1657H227.915ZM238.103 88.2724C237.036 88.2724 236.076 88.0306 235.223 87.5471C234.384 87.0635 233.722 86.3951 233.239 85.5417C232.755 84.6742 232.513 83.6786 232.513 82.5551C232.513 81.4173 232.755 80.4217 233.239 79.5684C233.722 78.7151 234.384 78.0537 235.223 77.5844C236.076 77.1008 237.036 76.8591 238.103 76.8591C239.084 76.8591 239.959 77.0795 240.727 77.5204C241.509 77.9613 242.128 78.6084 242.583 79.4617C243.052 80.3008 243.287 81.3319 243.287 82.5551C243.287 83.7639 243.059 84.7951 242.604 85.6484C242.149 86.5017 241.53 87.1559 240.748 87.6111C239.98 88.0519 239.098 88.2724 238.103 88.2724ZM238.209 86.9284C239.006 86.9284 239.717 86.7506 240.343 86.3951C240.983 86.0253 241.481 85.5133 241.836 84.8591C242.206 84.1906 242.391 83.4226 242.391 82.5551C242.391 81.6733 242.206 80.9053 241.836 80.2511C241.481 79.5968 240.983 79.0919 240.343 78.7364C239.717 78.3666 239.006 78.1817 238.209 78.1817C237.427 78.1817 236.723 78.3666 236.097 78.7364C235.472 79.0919 234.974 79.5968 234.604 80.2511C234.234 80.9053 234.049 81.6733 234.049 82.5551C234.049 83.4226 234.234 84.1906 234.604 84.8591C234.974 85.5133 235.472 86.0253 236.097 86.3951C236.723 86.7506 237.427 86.9284 238.209 86.9284ZM242.433 88.1657V84.7951L242.583 82.5337L242.369 80.2724V72.3364H243.884V88.1657H242.433ZM260.534 88.2937C259.41 88.2937 258.365 88.1088 257.398 87.7391C256.445 87.3551 255.613 86.8217 254.902 86.1391C254.205 85.4422 253.657 84.6386 253.259 83.7284C252.875 82.8039 252.683 81.7942 252.683 80.6991C252.683 79.6039 252.875 78.6013 253.259 77.6911C253.657 76.7666 254.205 75.9631 254.902 75.2804C255.613 74.5835 256.445 74.0502 257.398 73.6804C258.351 73.2964 259.396 73.1044 260.534 73.1044C261.657 73.1044 262.696 73.2964 263.648 73.6804C264.601 74.0502 265.426 74.5764 266.123 75.2591C266.834 75.9417 267.382 76.7453 267.766 77.6697C268.164 78.5942 268.363 79.6039 268.363 80.6991C268.363 81.7942 268.164 82.8039 267.766 83.7284C267.382 84.6528 266.834 85.4564 266.123 86.1391C265.426 86.8217 264.601 87.3551 263.648 87.7391C262.696 88.1088 261.657 88.2937 260.534 88.2937ZM260.534 86.8857C261.43 86.8857 262.255 86.7364 263.008 86.4377C263.776 86.1248 264.438 85.6911 264.992 85.1364C265.561 84.5675 266.002 83.9133 266.315 83.1737C266.628 82.4199 266.784 81.5951 266.784 80.6991C266.784 79.8031 266.628 78.9853 266.315 78.2457C266.002 77.4919 265.561 76.8377 264.992 76.2831C264.438 75.7142 263.776 75.2804 263.008 74.9817C262.255 74.6688 261.43 74.5124 260.534 74.5124C259.638 74.5124 258.806 74.6688 258.038 74.9817C257.27 75.2804 256.601 75.7142 256.032 76.2831C255.478 76.8377 255.037 77.4919 254.71 78.2457C254.397 78.9853 254.24 79.8031 254.24 80.6991C254.24 81.5808 254.397 82.3986 254.71 83.1524C255.037 83.9062 255.478 84.5675 256.032 85.1364C256.601 85.6911 257.27 86.1248 258.038 86.4377C258.806 86.7364 259.638 86.8857 260.534 86.8857ZM277.299 76.8591C278.209 76.8591 279.006 77.0368 279.688 77.3924C280.385 77.7337 280.926 78.2599 281.31 78.9711C281.708 79.6822 281.907 80.5782 281.907 81.6591V88.1657H280.392V81.8084C280.392 80.6279 280.094 79.7391 279.496 79.1417C278.913 78.5302 278.088 78.2244 277.022 78.2244C276.225 78.2244 275.528 78.3879 274.931 78.7151C274.348 79.0279 273.893 79.4902 273.566 80.1017C273.253 80.6991 273.096 81.4244 273.096 82.2777V88.1657H271.582V76.9657H273.032V80.0377L272.798 79.4617C273.153 78.6511 273.722 78.0182 274.504 77.5631C275.287 77.0937 276.218 76.8591 277.299 76.8591ZM295.464 88.1657V82.6191L295.827 83.6004L289.491 73.2324H291.176L296.744 82.3417H295.848L301.416 73.2324H302.995L296.659 83.6004L297.022 82.6191V88.1657H295.464ZM308.418 88.2724C307.337 88.2724 306.363 88.0306 305.495 87.5471C304.642 87.0493 303.966 86.3737 303.468 85.5204C302.971 84.6528 302.722 83.6644 302.722 82.5551C302.722 81.4315 302.971 80.4431 303.468 79.5897C303.966 78.7364 304.642 78.0679 305.495 77.5844C306.348 77.1008 307.323 76.8591 308.418 76.8591C309.527 76.8591 310.508 77.1008 311.362 77.5844C312.229 78.0679 312.905 78.7364 313.388 79.5897C313.886 80.4431 314.135 81.4315 314.135 82.5551C314.135 83.6644 313.886 84.6528 313.388 85.5204C312.905 86.3737 312.229 87.0493 311.362 87.5471C310.494 88.0306 309.513 88.2724 308.418 88.2724ZM308.418 86.9284C309.228 86.9284 309.947 86.7506 310.572 86.3951C311.198 86.0253 311.689 85.5133 312.044 84.8591C312.414 84.1906 312.599 83.4226 312.599 82.5551C312.599 81.6733 312.414 80.9053 312.044 80.2511C311.689 79.5968 311.198 79.0919 310.572 78.7364C309.947 78.3666 309.236 78.1817 308.439 78.1817C307.643 78.1817 306.932 78.3666 306.306 78.7364C305.68 79.0919 305.182 79.5968 304.812 80.2511C304.443 80.9053 304.258 81.6733 304.258 82.5551C304.258 83.4226 304.443 84.1906 304.812 84.8591C305.182 85.5133 305.68 86.0253 306.306 86.3951C306.932 86.7506 307.636 86.9284 308.418 86.9284ZM321.857 88.2724C320.904 88.2724 320.072 88.0946 319.361 87.7391C318.65 87.3835 318.095 86.8502 317.697 86.1391C317.313 85.4279 317.121 84.5391 317.121 83.4724V76.9657H318.635V83.3017C318.635 84.4964 318.927 85.3995 319.51 86.0111C320.107 86.6084 320.939 86.9071 322.006 86.9071C322.788 86.9071 323.464 86.7506 324.033 86.4377C324.616 86.1106 325.057 85.6413 325.355 85.0297C325.668 84.4182 325.825 83.6857 325.825 82.8324V76.9657H327.339V88.1657H325.889V85.0937L326.123 85.6484C325.768 86.4733 325.213 87.1204 324.459 87.5897C323.72 88.0448 322.852 88.2724 321.857 88.2724ZM331.561 88.1657V76.9657H333.011V80.0164L332.862 79.4831C333.175 78.6297 333.701 77.9826 334.441 77.5417C335.18 77.0866 336.098 76.8591 337.193 76.8591V78.3311C337.136 78.3311 337.079 78.3311 337.022 78.3311C336.965 78.3168 336.908 78.3097 336.851 78.3097C335.671 78.3097 334.747 78.6724 334.078 79.3977C333.41 80.1088 333.075 81.1257 333.075 82.4484V88.1657H331.561ZM347.435 80.4644H355.328V81.8297H347.435V80.4644ZM347.605 88.1657H346.027V73.2324H356.267V74.5977H347.605V88.1657ZM359.207 88.1657V76.9657H360.721V88.1657H359.207ZM359.975 74.4911C359.662 74.4911 359.399 74.3844 359.185 74.1711C358.972 73.9577 358.865 73.7017 358.865 73.4031C358.865 73.1044 358.972 72.8555 359.185 72.6564C359.399 72.4431 359.662 72.3364 359.975 72.3364C360.288 72.3364 360.551 72.4359 360.764 72.6351C360.977 72.8342 361.084 73.0831 361.084 73.3817C361.084 73.6946 360.977 73.9577 360.764 74.1711C360.565 74.3844 360.302 74.4911 359.975 74.4911ZM370.653 76.8591C371.563 76.8591 372.36 77.0368 373.042 77.3924C373.739 77.7337 374.28 78.2599 374.664 78.9711C375.062 79.6822 375.261 80.5782 375.261 81.6591V88.1657H373.746V81.8084C373.746 80.6279 373.448 79.7391 372.85 79.1417C372.267 78.5302 371.442 78.2244 370.376 78.2244C369.579 78.2244 368.882 78.3879 368.285 78.7151C367.702 79.0279 367.247 79.4902 366.92 80.1017C366.607 80.6991 366.45 81.4244 366.45 82.2777V88.1657H364.936V76.9657H366.386V80.0377L366.152 79.4617C366.507 78.6511 367.076 78.0182 367.858 77.5631C368.641 77.0937 369.572 76.8591 370.653 76.8591ZM384.131 92.4111C383.107 92.4111 382.126 92.2617 381.187 91.9631C380.248 91.6644 379.488 91.2377 378.904 90.6831L379.672 89.5311C380.199 90.0004 380.846 90.3702 381.614 90.6404C382.396 90.9248 383.221 91.0671 384.088 91.0671C385.511 91.0671 386.556 90.7328 387.224 90.0644C387.893 89.4102 388.227 88.3862 388.227 86.9924V84.1977L388.44 82.2777L388.291 80.3577V76.9657H389.742V86.8004C389.742 88.7346 389.265 90.1497 388.312 91.0457C387.374 91.9559 385.98 92.4111 384.131 92.4111ZM383.854 87.7391C382.787 87.7391 381.827 87.5115 380.974 87.0564C380.12 86.5871 379.445 85.9399 378.947 85.1151C378.464 84.2902 378.222 83.3444 378.222 82.2777C378.222 81.2111 378.464 80.2724 378.947 79.4617C379.445 78.6368 380.12 77.9968 380.974 77.5417C381.827 77.0866 382.787 76.8591 383.854 76.8591C384.849 76.8591 385.745 77.0653 386.542 77.4777C387.338 77.8902 387.971 78.5017 388.44 79.3124C388.91 80.1231 389.144 81.1115 389.144 82.2777C389.144 83.4439 388.91 84.4324 388.44 85.2431C387.971 86.0537 387.338 86.6724 386.542 87.0991C385.745 87.5257 384.849 87.7391 383.854 87.7391ZM384.003 86.3951C384.828 86.3951 385.56 86.2244 386.2 85.8831C386.84 85.5275 387.345 85.0439 387.715 84.4324C388.085 83.8066 388.27 83.0884 388.27 82.2777C388.27 81.4671 388.085 80.7559 387.715 80.1444C387.345 79.5328 386.84 79.0564 386.2 78.7151C385.56 78.3595 384.828 78.1817 384.003 78.1817C383.192 78.1817 382.46 78.3595 381.806 78.7151C381.166 79.0564 380.661 79.5328 380.291 80.1444C379.936 80.7559 379.758 81.4671 379.758 82.2777C379.758 83.0884 379.936 83.8066 380.291 84.4324C380.661 85.0439 381.166 85.5275 381.806 85.8831C382.46 86.2244 383.192 86.3951 384.003 86.3951ZM398.714 88.2724C397.548 88.2724 396.524 88.0306 395.642 87.5471C394.76 87.0493 394.07 86.3737 393.573 85.5204C393.075 84.6528 392.826 83.6644 392.826 82.5551C392.826 81.4457 393.061 80.4644 393.53 79.6111C394.014 78.7577 394.668 78.0893 395.493 77.6057C396.332 77.1079 397.27 76.8591 398.309 76.8591C399.361 76.8591 400.293 77.1008 401.103 77.5844C401.928 78.0537 402.575 78.7222 403.045 79.5897C403.514 80.4431 403.749 81.4315 403.749 82.5551C403.749 82.6262 403.742 82.7044 403.727 82.7897C403.727 82.8608 403.727 82.9391 403.727 83.0244H393.978V81.8937H402.917L402.319 82.3417C402.319 81.5311 402.142 80.8128 401.786 80.1871C401.445 79.5471 400.975 79.0493 400.378 78.6937C399.781 78.3382 399.091 78.1604 398.309 78.1604C397.541 78.1604 396.851 78.3382 396.239 78.6937C395.628 79.0493 395.151 79.5471 394.81 80.1871C394.469 80.8271 394.298 81.5595 394.298 82.3844V82.6191C394.298 83.4724 394.483 84.2262 394.853 84.8804C395.237 85.5204 395.763 86.0253 396.431 86.3951C397.114 86.7506 397.889 86.9284 398.757 86.9284C399.439 86.9284 400.072 86.8075 400.655 86.5657C401.253 86.3239 401.765 85.9542 402.191 85.4564L403.045 86.4377C402.547 87.0351 401.921 87.4902 401.167 87.8031C400.428 88.1159 399.61 88.2724 398.714 88.2724ZM406.832 88.1657V76.9657H408.282V80.0164L408.133 79.4831C408.446 78.6297 408.972 77.9826 409.712 77.5417C410.451 77.0866 411.369 76.8591 412.464 76.8591V78.3311C412.407 78.3311 412.35 78.3311 412.293 78.3311C412.236 78.3168 412.179 78.3097 412.122 78.3097C410.942 78.3097 410.017 78.6724 409.349 79.3977C408.681 80.1088 408.346 81.1257 408.346 82.4484V88.1657H406.832ZM419.248 88.2724C418.196 88.2724 417.385 87.9879 416.816 87.4191C416.247 86.8502 415.963 86.0466 415.963 85.0084V74.4911H417.477V84.9231C417.477 85.5773 417.641 86.0822 417.968 86.4377C418.309 86.7933 418.793 86.9711 419.419 86.9711C420.087 86.9711 420.642 86.7791 421.083 86.3951L421.616 87.4831C421.317 87.7533 420.955 87.9524 420.528 88.0804C420.116 88.2084 419.689 88.2724 419.248 88.2724ZM413.957 78.2244V76.9657H420.891V78.2244H413.957ZM424.373 88.1657V76.9657H425.888V88.1657H424.373ZM425.141 74.4911C424.828 74.4911 424.565 74.3844 424.352 74.1711C424.139 73.9577 424.032 73.7017 424.032 73.4031C424.032 73.1044 424.139 72.8555 424.352 72.6564C424.565 72.4431 424.828 72.3364 425.141 72.3364C425.454 72.3364 425.717 72.4359 425.931 72.6351C426.144 72.8342 426.251 73.0831 426.251 73.3817C426.251 73.6946 426.144 73.9577 425.931 74.1711C425.732 74.3844 425.468 74.4911 425.141 74.4911ZM435.884 88.2724C434.917 88.2724 434.042 88.0519 433.26 87.6111C432.478 87.1559 431.852 86.5088 431.382 85.6697C430.927 84.8164 430.7 83.7782 430.7 82.5551C430.7 81.3319 430.927 80.3008 431.382 79.4617C431.838 78.6084 432.456 77.9613 433.238 77.5204C434.021 77.0795 434.902 76.8591 435.884 76.8591C436.95 76.8591 437.903 77.1008 438.742 77.5844C439.596 78.0537 440.264 78.7222 440.748 79.5897C441.231 80.4431 441.473 81.4315 441.473 82.5551C441.473 83.6928 441.231 84.6884 440.748 85.5417C440.264 86.3951 439.596 87.0635 438.742 87.5471C437.903 88.0306 436.95 88.2724 435.884 88.2724ZM430.102 92.3044V76.9657H431.553V80.3364L431.404 82.5764L431.617 84.8377V92.3044H430.102ZM435.777 86.9284C436.574 86.9284 437.285 86.7506 437.91 86.3951C438.536 86.0253 439.034 85.5133 439.404 84.8591C439.774 84.1906 439.958 83.4226 439.958 82.5551C439.958 81.6875 439.774 80.9266 439.404 80.2724C439.034 79.6182 438.536 79.1062 437.91 78.7364C437.285 78.3666 436.574 78.1817 435.777 78.1817C434.981 78.1817 434.262 78.3666 433.622 78.7364C432.997 79.1062 432.499 79.6182 432.129 80.2724C431.774 80.9266 431.596 81.6875 431.596 82.5551C431.596 83.4226 431.774 84.1906 432.129 84.8591C432.499 85.5133 432.997 86.0253 433.622 86.3951C434.262 86.7506 434.981 86.9284 435.777 86.9284ZM447.569 88.2724C446.644 88.2724 445.77 88.1444 444.945 87.8884C444.12 87.6182 443.473 87.2839 443.003 86.8857L443.686 85.6911C444.141 86.0324 444.724 86.3311 445.435 86.5871C446.147 86.8288 446.893 86.9497 447.675 86.9497C448.742 86.9497 449.51 86.7862 449.979 86.4591C450.449 86.1177 450.683 85.6697 450.683 85.1151C450.683 84.7026 450.548 84.3826 450.278 84.1551C450.022 83.9133 449.681 83.7355 449.254 83.6217C448.827 83.4937 448.351 83.3871 447.825 83.3017C447.299 83.2164 446.772 83.1168 446.246 83.0031C445.734 82.8893 445.265 82.7257 444.838 82.5124C444.411 82.2848 444.063 81.9791 443.793 81.5951C443.537 81.2111 443.409 80.6991 443.409 80.0591C443.409 79.4475 443.579 78.8999 443.921 78.4164C444.262 77.9328 444.76 77.5559 445.414 77.2857C446.083 77.0013 446.893 76.8591 447.846 76.8591C448.571 76.8591 449.297 76.9586 450.022 77.1577C450.747 77.3426 451.345 77.5915 451.814 77.9044L451.153 79.1204C450.655 78.7791 450.122 78.5373 449.553 78.3951C448.984 78.2386 448.415 78.1604 447.846 78.1604C446.836 78.1604 446.09 78.3382 445.606 78.6937C445.137 79.0351 444.902 79.4759 444.902 80.0164C444.902 80.4431 445.03 80.7773 445.286 81.0191C445.556 81.2608 445.905 81.4528 446.331 81.5951C446.772 81.7231 447.249 81.8297 447.761 81.9151C448.287 82.0004 448.806 82.1071 449.318 82.2351C449.844 82.3488 450.321 82.5124 450.747 82.7257C451.188 82.9248 451.537 83.2164 451.793 83.6004C452.063 83.9702 452.198 84.4608 452.198 85.0724C452.198 85.7266 452.013 86.2955 451.643 86.7791C451.288 87.2484 450.762 87.6182 450.065 87.8884C449.382 88.1444 448.55 88.2724 447.569 88.2724Z" fill="#181818"/>
<path d="M141.225 52.1894V18.2694H128.105V14.856H158.291V18.2694H145.171V52.1894H141.225ZM168.116 31.5494H187.85V34.9094H168.116V31.5494ZM168.543 48.776H190.996V52.1894H164.596V14.856H190.196V18.2694H168.543V48.776ZM200.273 52.1894V14.856H203.527L229.287 47.2827H227.58V14.856H231.473V52.1894H228.22L202.513 19.7627H204.22V52.1894H200.273ZM253.952 52.5094C251.179 52.5094 248.512 52.0649 245.952 51.176C243.428 50.2516 241.472 49.0783 240.085 47.656L241.632 44.616C242.948 45.896 244.708 46.9805 246.912 47.8694C249.152 48.7227 251.499 49.1494 253.952 49.1494C256.299 49.1494 258.201 48.8649 259.659 48.296C261.152 47.6916 262.237 46.8916 262.912 45.896C263.623 44.9005 263.979 43.7983 263.979 42.5894C263.979 41.1316 263.552 39.9583 262.699 39.0694C261.881 38.1805 260.797 37.4872 259.445 36.9894C258.094 36.456 256.601 35.9938 254.965 35.6027C253.33 35.2116 251.694 34.8027 250.059 34.376C248.423 33.9138 246.912 33.3094 245.525 32.5627C244.174 31.816 243.072 30.8383 242.219 29.6294C241.401 28.3849 240.992 26.7672 240.992 24.776C240.992 22.9272 241.472 21.2383 242.432 19.7094C243.428 18.1449 244.939 16.9005 246.965 15.976C248.992 15.016 251.588 14.536 254.752 14.536C256.85 14.536 258.93 14.8383 260.992 15.4427C263.054 16.0116 264.832 16.8116 266.325 17.8427L264.992 20.9894C263.392 19.9227 261.685 19.1405 259.872 18.6427C258.094 18.1449 256.37 17.896 254.699 17.896C252.459 17.896 250.61 18.1983 249.152 18.8027C247.694 19.4072 246.61 20.2249 245.899 21.256C245.223 22.2516 244.885 23.3894 244.885 24.6694C244.885 26.1272 245.294 27.3005 246.112 28.1894C246.965 29.0783 248.068 29.7716 249.419 30.2694C250.805 30.7672 252.317 31.2116 253.952 31.6027C255.588 31.9938 257.205 32.4205 258.805 32.8827C260.441 33.3449 261.934 33.9494 263.285 34.696C264.672 35.4072 265.774 36.3672 266.592 37.576C267.445 38.7849 267.872 40.3672 267.872 42.3227C267.872 44.136 267.374 45.8249 266.379 47.3894C265.383 48.9183 263.854 50.1627 261.792 51.1227C259.765 52.0472 257.152 52.5094 253.952 52.5094ZM292.791 52.5094C289.982 52.5094 287.369 52.0472 284.951 51.1227C282.569 50.1627 280.489 48.8294 278.711 47.1227C276.969 45.3805 275.6 43.3716 274.605 41.096C273.645 38.7849 273.165 36.2605 273.165 33.5227C273.165 30.7849 273.645 28.2783 274.605 26.0027C275.6 23.6916 276.969 21.6827 278.711 19.976C280.489 18.2338 282.569 16.9005 284.951 15.976C287.333 15.016 289.947 14.536 292.791 14.536C295.6 14.536 298.196 15.016 300.578 15.976C302.96 16.9005 305.022 18.216 306.765 19.9227C308.542 21.6294 309.911 23.6383 310.871 25.9494C311.867 28.2605 312.365 30.7849 312.365 33.5227C312.365 36.2605 311.867 38.7849 310.871 41.096C309.911 43.4072 308.542 45.416 306.765 47.1227C305.022 48.8294 302.96 50.1627 300.578 51.1227C298.196 52.0472 295.6 52.5094 292.791 52.5094ZM292.791 48.9894C295.031 48.9894 297.093 48.616 298.978 47.8694C300.898 47.0872 302.551 46.0027 303.938 44.616C305.36 43.1938 306.462 41.5583 307.245 39.7094C308.027 37.8249 308.418 35.7627 308.418 33.5227C308.418 31.2827 308.027 29.2383 307.245 27.3894C306.462 25.5049 305.36 23.8694 303.938 22.4827C302.551 21.0605 300.898 19.976 298.978 19.2294C297.093 18.4472 295.031 18.056 292.791 18.056C290.551 18.056 288.471 18.4472 286.551 19.2294C284.631 19.976 282.96 21.0605 281.538 22.4827C280.151 23.8694 279.049 25.5049 278.231 27.3894C277.449 29.2383 277.058 31.2827 277.058 33.5227C277.058 35.7272 277.449 37.7716 278.231 39.656C279.049 41.5405 280.151 43.1938 281.538 44.616C282.96 46.0027 284.631 47.0872 286.551 47.8694C288.471 48.616 290.551 48.9894 292.791 48.9894ZM321.211 52.1894V14.856H335.184C338.349 14.856 341.069 15.3716 343.344 16.4027C345.62 17.3983 347.362 18.856 348.571 20.776C349.815 22.6605 350.438 24.9538 350.438 27.656C350.438 30.2872 349.815 32.5627 348.571 34.4827C347.362 36.3672 345.62 37.8249 343.344 38.856C341.069 39.8516 338.349 40.3494 335.184 40.3494H323.398L325.158 38.536V52.1894H321.211ZM346.704 52.1894L337.104 38.6427H341.371L351.024 52.1894H346.704ZM325.158 38.856L323.398 36.9894H335.078C338.811 36.9894 341.638 36.1716 343.558 34.536C345.513 32.9005 346.491 30.6072 346.491 27.656C346.491 24.6694 345.513 22.3583 343.558 20.7227C341.638 19.0872 338.811 18.2694 335.078 18.2694H323.398L325.158 16.4027V38.856ZM353.779 52.1894L370.846 14.856H374.739L391.806 52.1894H387.646L371.966 17.1494H373.566L357.886 52.1894H353.779ZM360.499 42.216L361.673 39.016H383.379L384.553 42.216H360.499ZM413.674 52.5094C410.865 52.5094 408.27 52.0472 405.888 51.1227C403.505 50.1627 401.443 48.8294 399.701 47.1227C397.959 45.416 396.59 43.4072 395.594 41.096C394.634 38.7849 394.154 36.2605 394.154 33.5227C394.154 30.7849 394.634 28.2605 395.594 25.9494C396.59 23.6383 397.959 21.6294 399.701 19.9227C401.479 18.216 403.559 16.9005 405.941 15.976C408.323 15.016 410.919 14.536 413.728 14.536C416.43 14.536 418.972 14.9983 421.354 15.9227C423.736 16.8116 425.745 18.1627 427.381 19.976L424.874 22.4827C423.345 20.9183 421.656 19.7983 419.808 19.1227C417.959 18.4116 415.968 18.056 413.834 18.056C411.594 18.056 409.514 18.4472 407.594 19.2294C405.674 19.976 404.003 21.0605 402.581 22.4827C401.159 23.8694 400.039 25.5049 399.221 27.3894C398.439 29.2383 398.048 31.2827 398.048 33.5227C398.048 35.7627 398.439 37.8249 399.221 39.7094C400.039 41.5583 401.159 43.1938 402.581 44.616C404.003 46.0027 405.674 47.0872 407.594 47.8694C409.514 48.616 411.594 48.9894 413.834 48.9894C415.968 48.9894 417.959 48.6338 419.808 47.9227C421.656 47.2116 423.345 46.0738 424.874 44.5094L427.381 47.016C425.745 48.8294 423.736 50.1983 421.354 51.1227C418.972 52.0472 416.412 52.5094 413.674 52.5094ZM442.579 52.1894V18.2694H429.459V14.856H459.645V18.2694H446.525V52.1894H442.579Z" fill="#181818"/>
<path d="M4.32276 106.608L39.6702 71.261L36.0473 67.6382L0.699929 102.986L4.32276 106.608Z" fill="#181818"/>
<path d="M73.5251 102.523H0.702026V107.64H73.5251V102.523Z" fill="#181818"/>
<path d="M73.5245 107.639V77.8916H68.4072V107.639H73.5245Z" fill="#181818"/>
<path d="M73.5245 64.5618V34.8139H68.4072V64.5618H73.5245Z" fill="#181818"/>
<path d="M0.700966 39.9259L73.524 39.9259V34.8086L0.700966 34.8086V39.9259Z" fill="#181818"/>
<path d="M0.703857 34.8171L0.703857 107.64H5.82118L5.82118 34.8171H0.703857Z" fill="#181818"/>
<path d="M103.749 2.00542L68.4011 37.3528L72.024 40.9757L107.371 5.62825L103.749 2.00542Z" fill="#181818"/>
<path d="M34.5468 44.052L34.5468 73.7999H39.6641L39.6641 44.052H34.5468Z" fill="#181818"/>
<path d="M107.37 68.6879L34.5472 68.6879V73.8053L107.37 73.8053V68.6879Z" fill="#181818"/>
<path d="M107.367 73.7967V0.973602L102.25 0.973602V73.7967H107.367Z" fill="#181818"/>
<path d="M34.5462 6.091L107.369 6.091V0.973705L34.5462 0.973705V6.091Z" fill="#181818"/>
<path d="M34.5468 0.974354L34.5468 30.7222H39.6641L39.6641 0.974354H34.5468Z" fill="#181818"/>
</svg>
